<?xml version="1.0" encoding="UTF-8" standalone="no"?>
<!DOCTYPE svg PUBLIC "-//W3C//DTD SVG 1.1//EN" "http://www.w3.org/Graphics/SVG/1.1/DTD/svg11.dtd">
<svg width="100%" height="100%" viewBox="0 0 648 409" version="1.1" xmlns="http://www.w3.org/2000/svg" xmlns:xlink="http://www.w3.org/1999/xlink" xml:space="preserve" xmlns:serif="http://www.serif.com/" style="fill-rule:evenodd;clip-rule:evenodd;stroke-linejoin:round;stroke-miterlimit:2;">
    <g id="Artboard1" transform="matrix(0.80994,0,0,0.680874,0,0)">
        <rect x="0" y="0" width="800" height="600" style="fill:none;"/>
        <g transform="matrix(0.132657,0,0,0.157804,-31.9433,-338.859)">
            <g transform="matrix(1.18905,-0.211785,0,1.11811,-879.84,1112.35)">
                <g transform="matrix(25.6343,0,0,25.6343,-63496.1,-89273.1)">
                    <path d="M2596.21,3563.91C2596.21,3566.16 2591.71,3569.21 2583.86,3569.21C2582.76,3569.21 2581.71,3569.16 2580.71,3569.06C2581.36,3564.06 2587.66,3560.96 2592.01,3560.96C2594.41,3560.96 2596.21,3561.86 2596.21,3563.91ZM2567.41,3559.61C2567.41,3556.16 2570.76,3553.11 2577.76,3553.11C2580.26,3553.11 2582.21,3553.66 2582.21,3553.66L2582.26,3553.41C2580.61,3552.61 2578.11,3552.26 2576.51,3552.26C2568.76,3552.26 2564.86,3555.96 2564.86,3560.26C2564.86,3564.91 2569.31,3570.21 2578.26,3572.31C2580.21,3580.26 2591.96,3586.71 2591.96,3592.56C2591.96,3596.06 2589.06,3597.96 2585.61,3597.96C2579.56,3597.96 2571.51,3595.51 2566.16,3590.46L2565.31,3589.66C2564.96,3589.66 2564.46,3589.61 2564.46,3589.61C2563.51,3588.31 2563.01,3587.96 2562.71,3587.96C2562.36,3587.96 2562.31,3588.51 2562.26,3588.51C2562.16,3588.51 2571.41,3604.56 2586.61,3604.56C2590.86,3604.56 2596.36,3602.26 2596.36,3595.96C2596.36,3587.31 2584.51,3579.51 2581.41,3572.86C2583.16,3573.11 2585.06,3573.26 2587.16,3573.26C2596.76,3573.26 2601.61,3569.06 2601.61,3565.21C2601.61,3561.01 2597.81,3559.21 2593.31,3559.21C2587.01,3559.21 2579.26,3562.76 2578.16,3568.66C2571.06,3567.26 2567.41,3563.21 2567.41,3559.61Z" style="fill:rgb(255,0,35);fill-rule:nonzero;"/>
                    <path d="M2606.26,3579.66C2601.51,3579.66 2598.41,3587.31 2598.41,3593.56C2598.41,3597.86 2599.91,3601.51 2603.36,3601.51C2605.31,3601.51 2607.21,3598.81 2608.56,3595.31C2609.06,3599.81 2610.96,3601.51 2612.91,3601.51C2615.21,3601.51 2617.56,3599.11 2617.56,3596.46C2617.56,3596.31 2617.56,3596.01 2617.36,3596.01C2617.21,3596.01 2617.11,3596.66 2616.56,3596.81C2616.06,3598.01 2614.71,3599.01 2613.61,3599.01C2612.36,3599.01 2612.01,3597.01 2612.01,3594.46C2612.01,3590.91 2612.71,3586.36 2612.71,3584.91C2612.71,3584.31 2611.46,3583.91 2610.56,3583.66C2610.21,3581.36 2608.91,3579.66 2606.26,3579.66ZM2602.81,3599.06C2601.81,3599.06 2601.31,3597.61 2601.31,3595.56C2601.31,3591.61 2603.36,3583.56 2606.46,3583.56C2607.21,3583.56 2608.01,3584.06 2608.86,3585.16C2608.41,3589.11 2606.91,3599.06 2602.81,3599.06Z" style="fill:rgb(255,0,35);fill-rule:nonzero;"/>
                    <path d="M2616.76,3592.76C2616.76,3598.86 2620.81,3601.96 2624.46,3601.96C2627.51,3601.96 2630.26,3599.81 2630.26,3595.51C2630.26,3593.11 2629.16,3590.91 2627.71,3590.91C2627.11,3590.91 2627.11,3591.16 2627.11,3591.21C2627.51,3592.46 2627.71,3593.61 2627.71,3594.66C2627.71,3597.96 2626.01,3599.61 2624.21,3599.61C2622.26,3599.61 2620.16,3597.61 2620.16,3593.81C2620.16,3589.11 2623.06,3583.16 2625.76,3582.96C2626.01,3583.06 2626.11,3583.36 2626.11,3583.76C2626.11,3584.91 2625.21,3586.81 2624.81,3586.86C2624.71,3586.86 2624.66,3586.91 2624.66,3587.01C2624.66,3587.26 2625.06,3587.66 2626.11,3587.66C2627.81,3587.66 2629.11,3586.46 2629.11,3584.86C2629.11,3584.61 2629.06,3584.31 2629.01,3584.06C2628.76,3580.66 2627.26,3579.11 2625.26,3579.11C2620.46,3579.11 2616.76,3586.46 2616.76,3592.76Z" style="fill:rgb(255,0,35);fill-rule:nonzero;"/>
                    <path d="M2635.56,3590.16C2635.56,3588.76 2635.76,3585.91 2636.01,3582.91C2640.86,3578.31 2644.26,3568.41 2644.26,3561.86C2644.26,3558.21 2643.16,3555.61 2640.71,3555.61C2637.86,3555.61 2633.96,3569.31 2633.11,3581.66L2632.96,3583.46C2632.21,3583.71 2631.06,3583.96 2631.11,3583.96C2631.11,3584.01 2631.26,3584.11 2631.61,3584.11C2632.06,3584.31 2631.81,3584.61 2632.26,3584.81C2632.31,3584.86 2632.46,3584.91 2632.66,3584.91L2632.86,3584.91C2632.31,3592.31 2631.66,3599.16 2631.56,3600.96C2632.01,3601.41 2633.81,3602.31 2634.66,3602.96C2634.81,3603.06 2634.91,3603.11 2635.01,3603.11C2635.26,3603.11 2635.36,3602.76 2635.36,3602.26C2635.36,3602.26 2635.31,3600.76 2635.31,3598.91C2635.31,3596.36 2635.91,3593.06 2637.01,3590.56C2637.46,3589.46 2639.81,3584.96 2640.11,3584.96C2640.26,3584.96 2640.31,3585.61 2640.31,3585.81C2640.21,3587.21 2640.06,3589.46 2640.06,3591.81C2640.06,3594.76 2640.31,3601.71 2644.71,3601.71C2645.41,3601.71 2646.26,3601.51 2647.16,3600.86C2648.56,3599.86 2649.91,3597.76 2649.91,3595.91C2649.91,3595.66 2649.81,3595.16 2649.41,3595.16C2649.21,3595.16 2649.16,3595.36 2649.16,3595.36C2648.76,3596.71 2647.31,3599.11 2645.66,3599.11C2644.26,3599.11 2644.01,3596.21 2644.01,3593.71C2644.01,3590.31 2644.31,3586.81 2644.86,3582.86C2644.86,3581.81 2643.91,3581.61 2642.91,3581.56C2642.91,3581.56 2642.51,3581.11 2642.01,3581.11C2640.31,3581.11 2636.56,3588.46 2635.91,3590.21C2635.86,3590.31 2635.81,3590.36 2635.71,3590.36C2635.66,3590.36 2635.56,3590.31 2635.56,3590.16ZM2641.81,3563.96C2641.81,3567.86 2639.86,3576.31 2636.16,3580.86C2637.01,3571.56 2639.46,3561.91 2641.16,3561.91C2641.56,3561.91 2641.81,3562.71 2641.81,3563.96Z" style="fill:rgb(255,0,35);fill-rule:nonzero;"/>
                    <path d="M2657.71,3599.61C2654.96,3599.61 2652.96,3597.86 2652.66,3593.66C2658.06,3590.66 2660.41,3586.41 2660.41,3583.26C2660.41,3580.96 2659.16,3579.31 2656.91,3579.31C2652.06,3579.31 2648.91,3585.96 2648.91,3592.01C2648.91,3598.76 2654.71,3602.41 2660.81,3602.41C2667.56,3602.41 2674.61,3597.96 2674.61,3588.26L2674.61,3588.21C2674.61,3587.76 2674.26,3587.66 2674.21,3587.16C2674.26,3586.81 2674.31,3586.56 2674.31,3586.36C2674.31,3585.96 2674.21,3585.86 2674.06,3585.86C2673.86,3585.86 2673.66,3586.06 2673.66,3586.06C2670.41,3593.41 2662.81,3599.61 2657.71,3599.61ZM2657.71,3583.56C2657.71,3585.56 2655.91,3589.31 2652.66,3591.76C2652.86,3587.31 2654.56,3582.21 2656.76,3582.21C2657.41,3582.21 2657.71,3582.71 2657.71,3583.56Z" style="fill:rgb(255,0,35);fill-rule:nonzero;"/>
                </g>
                <g transform="matrix(25.9778,0,0,25.9778,-65439,-89173.5)">
                    <path d="M2606.71,3579.26C2606.71,3564.76 2593.36,3558.46 2580.81,3558.46C2569.66,3558.46 2559.16,3563.41 2559.16,3572.11C2559.16,3576.41 2563.06,3580.26 2570.76,3580.86C2570.11,3588.11 2569.71,3595.91 2569.71,3600.36C2569.71,3601.61 2571.26,3604.76 2572.81,3604.76C2573.51,3604.76 2573.41,3603.71 2573.56,3603.01C2573.61,3602.76 2573.76,3602.36 2573.96,3601.96C2575.06,3603.21 2577.26,3604.11 2580.76,3604.11C2597.56,3604.11 2606.71,3591.31 2606.71,3579.26ZM2572.51,3567.31C2572.01,3569.81 2571.51,3573.36 2571.11,3577.31C2565.46,3576.21 2562.51,3573.26 2562.51,3570.21C2562.51,3564.31 2569.91,3561.21 2578.31,3561.21C2589.21,3561.21 2601.71,3566.46 2601.71,3577.86C2601.71,3588.06 2593.86,3599.01 2579.61,3599.01C2577.16,3599.01 2576.06,3598.46 2576.06,3597.46C2576.06,3596.31 2577.11,3595.31 2577.46,3594.86C2577.46,3594.61 2576.81,3594.51 2576.81,3594.51C2575.71,3595.11 2574.86,3595.81 2574.21,3596.61C2574.21,3591.86 2574.26,3586.46 2574.46,3580.91C2581.41,3580.36 2584.26,3575.91 2584.11,3575.76C2581.61,3577.21 2578.96,3577.76 2576.36,3577.76C2575.76,3577.76 2575.16,3577.76 2574.61,3577.71C2574.76,3573.81 2575.01,3569.96 2575.36,3566.36C2575.36,3566.16 2575.31,3566.11 2575.26,3566.11C2574.66,3566.11 2573.96,3566.31 2573.26,3566.46C2572.86,3566.56 2572.66,3566.71 2572.51,3567.31Z" style="fill:rgb(255,0,35);fill-rule:nonzero;"/>
                    <path d="M2611.26,3579.06C2610.96,3582.66 2607.21,3595.96 2603.81,3600.86C2603.76,3600.91 2603.76,3600.96 2603.76,3601.01C2603.76,3601.41 2604.86,3601.61 2604.86,3601.61C2608.01,3597.61 2610.26,3588.71 2611.46,3586.41C2611.46,3587.61 2613.36,3593.26 2613.36,3596.61C2613.36,3598.11 2613.01,3599.16 2611.91,3599.16C2610.71,3599.16 2610.71,3597.26 2609.96,3595.51C2609.91,3595.41 2609.86,3595.41 2609.81,3595.41C2609.51,3595.41 2609.06,3596.66 2609.06,3598.11C2609.06,3600.86 2610.86,3602.16 2612.71,3602.16C2614.76,3602.16 2616.91,3600.61 2616.91,3597.61C2616.91,3593.51 2613.96,3588.01 2613.96,3584.41C2613.96,3580.56 2614.71,3577.31 2614.71,3577.26C2614.71,3577.06 2614.46,3577.01 2614.31,3577.01C2613.56,3577.01 2611.36,3577.96 2611.26,3579.06Z" style="fill:rgb(255,0,35);fill-rule:nonzero;"/>
                    <path d="M2618.51,3592.76C2618.51,3598.86 2622.56,3601.96 2626.21,3601.96C2629.26,3601.96 2632.01,3599.81 2632.01,3595.51C2632.01,3593.11 2630.91,3590.91 2629.46,3590.91C2628.86,3590.91 2628.86,3591.16 2628.86,3591.21C2629.26,3592.46 2629.46,3593.61 2629.46,3594.66C2629.46,3597.96 2627.76,3599.61 2625.96,3599.61C2624.01,3599.61 2621.91,3597.61 2621.91,3593.81C2621.91,3589.11 2624.81,3583.16 2627.51,3582.96C2627.76,3583.06 2627.86,3583.36 2627.86,3583.76C2627.86,3584.91 2626.96,3586.81 2626.56,3586.86C2626.46,3586.86 2626.41,3586.91 2626.41,3587.01C2626.41,3587.26 2626.81,3587.66 2627.86,3587.66C2629.56,3587.66 2630.86,3586.46 2630.86,3584.86C2630.86,3584.61 2630.81,3584.31 2630.76,3584.06C2630.51,3580.66 2629.01,3579.11 2627.01,3579.11C2622.21,3579.11 2618.51,3586.46 2618.51,3592.76Z" style="fill:rgb(255,0,35);fill-rule:nonzero;"/>
                    <path d="M2637.31,3590.16C2637.31,3588.76 2637.51,3585.91 2637.76,3582.91C2642.61,3578.31 2646.01,3568.41 2646.01,3561.86C2646.01,3558.21 2644.91,3555.61 2642.46,3555.61C2639.61,3555.61 2635.71,3569.31 2634.86,3581.66L2634.71,3583.46C2633.96,3583.71 2632.81,3583.96 2632.86,3583.96C2632.86,3584.01 2633.01,3584.11 2633.36,3584.11C2633.81,3584.31 2633.56,3584.61 2634.01,3584.81C2634.06,3584.86 2634.21,3584.91 2634.41,3584.91L2634.61,3584.91C2634.06,3592.31 2633.41,3599.16 2633.31,3600.96C2633.76,3601.41 2635.56,3602.31 2636.41,3602.96C2636.56,3603.06 2636.66,3603.11 2636.76,3603.11C2637.01,3603.11 2637.11,3602.76 2637.11,3602.26C2637.11,3602.26 2637.06,3600.76 2637.06,3598.91C2637.06,3596.36 2637.66,3593.06 2638.76,3590.56C2639.21,3589.46 2641.56,3584.96 2641.86,3584.96C2642.01,3584.96 2642.06,3585.61 2642.06,3585.81C2641.96,3587.21 2641.81,3589.46 2641.81,3591.81C2641.81,3594.76 2642.06,3601.71 2646.46,3601.71C2647.16,3601.71 2648.01,3601.51 2648.91,3600.86C2650.31,3599.86 2651.66,3597.76 2651.66,3595.91C2651.66,3595.66 2651.56,3595.16 2651.16,3595.16C2650.96,3595.16 2650.91,3595.36 2650.91,3595.36C2650.51,3596.71 2649.06,3599.11 2647.41,3599.11C2646.01,3599.11 2645.76,3596.21 2645.76,3593.71C2645.76,3590.31 2646.06,3586.81 2646.61,3582.86C2646.61,3581.81 2645.66,3581.61 2644.66,3581.56C2644.66,3581.56 2644.26,3581.11 2643.76,3581.11C2642.06,3581.11 2638.31,3588.46 2637.66,3590.21C2637.61,3590.31 2637.56,3590.36 2637.46,3590.36C2637.41,3590.36 2637.31,3590.31 2637.31,3590.16ZM2643.56,3563.96C2643.56,3567.86 2641.61,3576.31 2637.91,3580.86C2638.76,3571.56 2641.21,3561.91 2642.91,3561.91C2643.31,3561.91 2643.56,3562.71 2643.56,3563.96Z" style="fill:rgb(255,0,35);fill-rule:nonzero;"/>
                    <path d="M2656.86,3581.06C2656.86,3581.06 2656.86,3580.66 2656.26,3580.66C2654.91,3580.96 2654.06,3581.01 2653.21,3581.01C2652.81,3581.01 2652.61,3581.66 2652.61,3581.66C2651.96,3583.81 2651.01,3589.11 2651.01,3593.76C2651.01,3598.21 2651.86,3602.11 2654.61,3602.11C2657.51,3602.11 2659.71,3596.51 2661.16,3592.56C2661.31,3598.36 2662.81,3601.46 2664.71,3601.46C2666.11,3601.46 2667.76,3599.76 2669.26,3596.11C2671.41,3591.06 2672.31,3584.21 2672.86,3584.21C2672.91,3584.21 2672.96,3584.46 2672.96,3584.91C2672.96,3587.31 2672.61,3591.11 2672.46,3593.26C2672.16,3597.31 2671.81,3600.56 2671.81,3600.66C2671.81,3600.81 2673.11,3602.01 2674.16,3602.01C2674.56,3602.01 2674.86,3601.86 2674.91,3601.51C2676.01,3598.21 2677.21,3591.36 2679.61,3588.76C2679.61,3591.26 2679.91,3599.81 2684.26,3599.81C2686.26,3599.81 2687.61,3596.76 2687.61,3594.71C2687.61,3594.61 2687.56,3594.56 2687.46,3594.56C2687.36,3594.56 2687.26,3594.61 2687.26,3594.61C2686.46,3596.81 2685.71,3597.66 2685.11,3597.66C2684.06,3597.66 2683.41,3595.06 2683.41,3592.41C2683.41,3589.41 2683.91,3584.96 2685.16,3582.16C2685.21,3582.06 2685.21,3582.01 2685.21,3581.91C2685.21,3581.31 2683.46,3580.16 2682.91,3580.16C2682.76,3580.16 2682.66,3580.21 2682.51,3580.31C2679.61,3583.06 2677.76,3588.91 2676.16,3592.41C2676.16,3591.11 2676.21,3588.91 2676.21,3584.51C2676.21,3582.46 2676.16,3580.21 2675.76,3580.21C2675.36,3580.21 2674.71,3580.76 2673.81,3580.76C2673.16,3580.76 2672.46,3582.61 2671.66,3584.96C2670.81,3587.56 2669.76,3592.06 2668.31,3595.26C2667.26,3597.56 2666.31,3598.91 2665.56,3598.91C2664.86,3598.91 2664.36,3597.61 2664.36,3594.56C2664.36,3590.61 2665.26,3585.31 2665.26,3583.81C2665.26,3582.91 2662.61,3582.51 2662.16,3582.26C2661.56,3585.21 2661.26,3587.81 2661.16,3590.06C2659.91,3593.96 2657.06,3599.21 2655.56,3599.21C2654.96,3599.21 2654.61,3598.41 2654.61,3596.46C2654.61,3587.36 2656.86,3581.61 2656.86,3581.06Z" style="fill:rgb(255,0,35);fill-rule:nonzero;"/>
                    <path d="M2692.61,3601.51C2694.66,3601.51 2696.66,3598.71 2698.01,3595.11C2698.06,3595.16 2698.06,3595.21 2698.06,3595.31C2697.66,3600.26 2698.11,3615.4 2687.36,3615.4C2684.81,3615.4 2683.16,3612.15 2683.16,3610.3C2683.01,3610 2682.71,3609.8 2682.51,3609.8C2682.21,3609.8 2682.01,3610.05 2682.01,3610.6C2682.01,3614.15 2685.26,3618 2689.06,3618C2703.31,3618 2699.51,3601.46 2703.46,3587.31C2703.51,3587.16 2703.51,3587.01 2703.51,3586.91C2703.51,3585.36 2700.71,3585.01 2698.81,3584.86C2698.36,3588.81 2696.16,3599.06 2692.06,3599.06C2691.06,3599.06 2690.56,3597.21 2690.56,3595.16C2690.56,3590.86 2693.81,3583.41 2698.51,3583.41C2699.21,3583.41 2699.86,3583.56 2700.61,3583.91L2700.61,3583.81C2700.61,3581.06 2698.76,3579.51 2696.46,3579.51C2692.66,3579.51 2687.66,3583.71 2687.66,3593.56C2687.66,3597.86 2689.16,3601.51 2692.61,3601.51Z" style="fill:rgb(255,0,35);fill-rule:nonzero;"/>
                    <path d="M2728.26,3599.41C2725.31,3599.41 2723.71,3596.91 2722.91,3593.16C2727.56,3584.01 2729.81,3570.31 2729.81,3564.56C2729.81,3560.01 2728.86,3556.96 2726.56,3556.96C2723.01,3556.96 2719.91,3571.61 2719.91,3585.31C2719.91,3588.26 2720.01,3591.76 2720.86,3594.86C2719.11,3597.66 2716.06,3600.21 2713.56,3600.21C2711.46,3600.21 2709.71,3598.46 2709.31,3593.66C2714.56,3591.66 2716.81,3587.21 2716.81,3583.81C2716.81,3581.26 2715.56,3579.31 2713.36,3579.31C2708.71,3579.31 2705.66,3585.61 2705.36,3591.66L2704.61,3591.51C2704.36,3591.51 2704.01,3591.76 2704.01,3591.96C2704.01,3592.01 2704.06,3592.06 2704.11,3592.11C2704.66,3592.71 2704.46,3593.21 2704.76,3593.26C2704.96,3593.31 2705.16,3593.31 2705.36,3593.31C2706.76,3599.26 2709.66,3601.66 2712.76,3601.66C2715.81,3601.66 2719.06,3599.41 2721.26,3596.06C2722.61,3599.71 2725.26,3602.56 2730.61,3602.56C2738.36,3602.56 2744.66,3596.46 2744.66,3588.21C2744.66,3587.76 2744.31,3587.66 2744.26,3587.16C2744.31,3586.81 2744.36,3586.56 2744.36,3586.36C2744.36,3585.96 2744.26,3585.86 2744.11,3585.86C2743.91,3585.86 2743.71,3586.06 2743.71,3586.06C2741.46,3591.06 2734.56,3599.41 2728.26,3599.41ZM2727.51,3566.11C2727.51,3571.11 2726.26,3583.16 2722.61,3591.51C2722.36,3589.81 2722.26,3587.96 2722.26,3585.96C2722.26,3575.21 2725.36,3561.91 2726.36,3561.91C2727.16,3561.91 2727.51,3563.51 2727.51,3566.11ZM2713.21,3582.21C2713.96,3582.21 2714.36,3583.11 2714.36,3584.31C2714.36,3586.66 2712.86,3590.26 2709.26,3591.56C2709.36,3587.11 2710.96,3582.21 2713.21,3582.21Z" style="fill:rgb(255,0,35);fill-rule:nonzero;"/>
                </g>
            </g>
            <g transform="matrix(1.18905,-0.211785,0,1.11811,-896.84,1075.35)">
                <g transform="matrix(8.1412,0,0,8.1412,-19165.2,-26775.1)">
                    <path d="M2606.71,3579.26C2606.71,3564.76 2593.36,3558.46 2580.81,3558.46C2569.66,3558.46 2559.16,3563.41 2559.16,3572.11C2559.16,3576.41 2563.06,3580.26 2570.76,3580.86C2570.11,3588.11 2569.71,3595.91 2569.71,3600.36C2569.71,3601.61 2571.26,3604.76 2572.81,3604.76C2573.51,3604.76 2573.41,3603.71 2573.56,3603.01C2573.61,3602.76 2573.76,3602.36 2573.96,3601.96C2575.06,3603.21 2577.26,3604.11 2580.76,3604.11C2597.56,3604.11 2606.71,3591.31 2606.71,3579.26ZM2572.51,3567.31C2572.01,3569.81 2571.51,3573.36 2571.11,3577.31C2565.46,3576.21 2562.51,3573.26 2562.51,3570.21C2562.51,3564.31 2569.91,3561.21 2578.31,3561.21C2589.21,3561.21 2601.71,3566.46 2601.71,3577.86C2601.71,3588.06 2593.86,3599.01 2579.61,3599.01C2577.16,3599.01 2576.06,3598.46 2576.06,3597.46C2576.06,3596.31 2577.11,3595.31 2577.46,3594.86C2577.46,3594.61 2576.81,3594.51 2576.81,3594.51C2575.71,3595.11 2574.86,3595.81 2574.21,3596.61C2574.21,3591.86 2574.26,3586.46 2574.46,3580.91C2581.41,3580.36 2584.26,3575.91 2584.11,3575.76C2581.61,3577.21 2578.96,3577.76 2576.36,3577.76C2575.76,3577.76 2575.16,3577.76 2574.61,3577.71C2574.76,3573.81 2575.01,3569.96 2575.36,3566.36C2575.36,3566.16 2575.31,3566.11 2575.26,3566.11C2574.66,3566.11 2573.96,3566.31 2573.26,3566.46C2572.86,3566.56 2572.66,3566.71 2572.51,3567.31Z" style="fill:rgb(255,242,0);fill-rule:nonzero;"/>
                    <path d="M2609.06,3582.21C2608.56,3584.41 2607.66,3589.31 2607.66,3593.66C2607.66,3597.86 2608.51,3601.51 2611.31,3601.51C2613.71,3601.51 2615.81,3598.91 2616.36,3596.06L2616.36,3595.96C2616.36,3595.76 2616.26,3595.66 2616.11,3595.66C2615.96,3595.66 2615.76,3595.81 2615.66,3595.96C2615.11,3597.26 2613.51,3599.06 2612.41,3599.06C2611.76,3599.06 2611.31,3598.46 2611.31,3596.76C2611.31,3591.76 2612.01,3588.86 2613.31,3581.61C2613.31,3581.61 2613.31,3581.21 2612.71,3581.21C2611.36,3581.51 2610.51,3581.56 2609.66,3581.56C2609.26,3581.56 2609.06,3582.21 2609.06,3582.21ZM2613.66,3568.06C2611.66,3568.06 2610.36,3570.26 2610.36,3572.11C2610.36,3573.46 2611.06,3574.66 2612.66,3574.66C2614.41,3574.66 2615.86,3572.26 2615.86,3570.36C2615.86,3569.11 2615.26,3568.06 2613.66,3568.06Z" style="fill:rgb(255,242,0);fill-rule:nonzero;"/>
                    <path d="M2624.81,3599.61C2622.06,3599.61 2620.06,3597.86 2619.76,3593.66C2625.16,3590.66 2627.51,3586.41 2627.51,3583.26C2627.51,3580.96 2626.26,3579.31 2624.01,3579.31C2619.16,3579.31 2616.01,3585.96 2616.01,3592.01C2616.01,3598.76 2621.81,3602.41 2627.91,3602.41C2634.66,3602.41 2641.71,3597.96 2641.71,3588.26L2641.71,3588.21C2641.71,3587.76 2641.36,3587.66 2641.31,3587.16C2641.36,3586.81 2641.41,3586.56 2641.41,3586.36C2641.41,3585.96 2641.31,3585.86 2641.16,3585.86C2640.96,3585.86 2640.76,3586.06 2640.76,3586.06C2637.51,3593.41 2629.91,3599.61 2624.81,3599.61ZM2624.81,3583.56C2624.81,3585.56 2623.01,3589.31 2619.76,3591.76C2619.96,3587.31 2621.66,3582.21 2623.86,3582.21C2624.51,3582.21 2624.81,3582.71 2624.81,3583.56Z" style="fill:rgb(255,242,0);fill-rule:nonzero;"/>
                </g>
                <g transform="matrix(25.6343,0,0,25.6343,-63496.1,-89273.1)">
                    <path d="M2596.21,3563.91C2596.21,3566.16 2591.71,3569.21 2583.86,3569.21C2582.76,3569.21 2581.71,3569.16 2580.71,3569.06C2581.36,3564.06 2587.66,3560.96 2592.01,3560.96C2594.41,3560.96 2596.21,3561.86 2596.21,3563.91ZM2567.41,3559.61C2567.41,3556.16 2570.76,3553.11 2577.76,3553.11C2580.26,3553.11 2582.21,3553.66 2582.21,3553.66L2582.26,3553.41C2580.61,3552.61 2578.11,3552.26 2576.51,3552.26C2568.76,3552.26 2564.86,3555.96 2564.86,3560.26C2564.86,3564.91 2569.31,3570.21 2578.26,3572.31C2580.21,3580.26 2591.96,3586.71 2591.96,3592.56C2591.96,3596.06 2589.06,3597.96 2585.61,3597.96C2579.56,3597.96 2571.51,3595.51 2566.16,3590.46L2565.31,3589.66C2564.96,3589.66 2564.46,3589.61 2564.46,3589.61C2563.51,3588.31 2563.01,3587.96 2562.71,3587.96C2562.36,3587.96 2562.31,3588.51 2562.26,3588.51C2562.16,3588.51 2571.41,3604.56 2586.61,3604.56C2590.86,3604.56 2596.36,3602.26 2596.36,3595.96C2596.36,3587.31 2584.51,3579.51 2581.41,3572.86C2583.16,3573.11 2585.06,3573.26 2587.16,3573.26C2596.76,3573.26 2601.61,3569.06 2601.61,3565.21C2601.61,3561.01 2597.81,3559.21 2593.31,3559.21C2587.01,3559.21 2579.26,3562.76 2578.16,3568.66C2571.06,3567.26 2567.41,3563.21 2567.41,3559.61Z" style="fill:rgb(255,242,0);fill-rule:nonzero;"/>
                    <path d="M2606.26,3579.66C2601.51,3579.66 2598.41,3587.31 2598.41,3593.56C2598.41,3597.86 2599.91,3601.51 2603.36,3601.51C2605.31,3601.51 2607.21,3598.81 2608.56,3595.31C2609.06,3599.81 2610.96,3601.51 2612.91,3601.51C2615.21,3601.51 2617.56,3599.11 2617.56,3596.46C2617.56,3596.31 2617.56,3596.01 2617.36,3596.01C2617.21,3596.01 2617.11,3596.66 2616.56,3596.81C2616.06,3598.01 2614.71,3599.01 2613.61,3599.01C2612.36,3599.01 2612.01,3597.01 2612.01,3594.46C2612.01,3590.91 2612.71,3586.36 2612.71,3584.91C2612.71,3584.31 2611.46,3583.91 2610.56,3583.66C2610.21,3581.36 2608.91,3579.66 2606.26,3579.66ZM2602.81,3599.06C2601.81,3599.06 2601.31,3597.61 2601.31,3595.56C2601.31,3591.61 2603.36,3583.56 2606.46,3583.56C2607.21,3583.56 2608.01,3584.06 2608.86,3585.16C2608.41,3589.11 2606.91,3599.06 2602.81,3599.06Z" style="fill:rgb(255,242,0);fill-rule:nonzero;"/>
                    <path d="M2616.76,3592.76C2616.76,3598.86 2620.81,3601.96 2624.46,3601.96C2627.51,3601.96 2630.26,3599.81 2630.26,3595.51C2630.26,3593.11 2629.16,3590.91 2627.71,3590.91C2627.11,3590.91 2627.11,3591.16 2627.11,3591.21C2627.51,3592.46 2627.71,3593.61 2627.71,3594.66C2627.71,3597.96 2626.01,3599.61 2624.21,3599.61C2622.26,3599.61 2620.16,3597.61 2620.16,3593.81C2620.16,3589.11 2623.06,3583.16 2625.76,3582.96C2626.01,3583.06 2626.11,3583.36 2626.11,3583.76C2626.11,3584.91 2625.21,3586.81 2624.81,3586.86C2624.71,3586.86 2624.66,3586.91 2624.66,3587.01C2624.66,3587.26 2625.06,3587.66 2626.11,3587.66C2627.81,3587.66 2629.11,3586.46 2629.11,3584.86C2629.11,3584.61 2629.06,3584.31 2629.01,3584.06C2628.76,3580.66 2627.26,3579.11 2625.26,3579.11C2620.46,3579.11 2616.76,3586.46 2616.76,3592.76Z" style="fill:rgb(255,242,0);fill-rule:nonzero;"/>
                    <path d="M2635.56,3590.16C2635.56,3588.76 2635.76,3585.91 2636.01,3582.91C2640.86,3578.31 2644.26,3568.41 2644.26,3561.86C2644.26,3558.21 2643.16,3555.61 2640.71,3555.61C2637.86,3555.61 2633.96,3569.31 2633.11,3581.66L2632.96,3583.46C2632.21,3583.71 2631.06,3583.96 2631.11,3583.96C2631.11,3584.01 2631.26,3584.11 2631.61,3584.11C2632.06,3584.31 2631.81,3584.61 2632.26,3584.81C2632.31,3584.86 2632.46,3584.91 2632.66,3584.91L2632.86,3584.91C2632.31,3592.31 2631.66,3599.16 2631.56,3600.96C2632.01,3601.41 2633.81,3602.31 2634.66,3602.96C2634.81,3603.06 2634.91,3603.11 2635.01,3603.11C2635.26,3603.11 2635.36,3602.76 2635.36,3602.26C2635.36,3602.26 2635.31,3600.76 2635.31,3598.91C2635.31,3596.36 2635.91,3593.06 2637.01,3590.56C2637.46,3589.46 2639.81,3584.96 2640.11,3584.96C2640.26,3584.96 2640.31,3585.61 2640.31,3585.81C2640.21,3587.21 2640.06,3589.46 2640.06,3591.81C2640.06,3594.76 2640.31,3601.71 2644.71,3601.71C2645.41,3601.71 2646.26,3601.51 2647.16,3600.86C2648.56,3599.86 2649.91,3597.76 2649.91,3595.91C2649.91,3595.66 2649.81,3595.16 2649.41,3595.16C2649.21,3595.16 2649.16,3595.36 2649.16,3595.36C2648.76,3596.71 2647.31,3599.11 2645.66,3599.11C2644.26,3599.11 2644.01,3596.21 2644.01,3593.71C2644.01,3590.31 2644.31,3586.81 2644.86,3582.86C2644.86,3581.81 2643.91,3581.61 2642.91,3581.56C2642.91,3581.56 2642.51,3581.11 2642.01,3581.11C2640.31,3581.11 2636.56,3588.46 2635.91,3590.21C2635.86,3590.31 2635.81,3590.36 2635.71,3590.36C2635.66,3590.36 2635.56,3590.31 2635.56,3590.16ZM2641.81,3563.96C2641.81,3567.86 2639.86,3576.31 2636.16,3580.86C2637.01,3571.56 2639.46,3561.91 2641.16,3561.91C2641.56,3561.91 2641.81,3562.71 2641.81,3563.96Z" style="fill:rgb(255,242,0);fill-rule:nonzero;"/>
                    <path d="M2657.71,3599.61C2654.96,3599.61 2652.96,3597.86 2652.66,3593.66C2658.06,3590.66 2660.41,3586.41 2660.41,3583.26C2660.41,3580.96 2659.16,3579.31 2656.91,3579.31C2652.06,3579.31 2648.91,3585.96 2648.91,3592.01C2648.91,3598.76 2654.71,3602.41 2660.81,3602.41C2667.56,3602.41 2674.61,3597.96 2674.61,3588.26L2674.61,3588.21C2674.61,3587.76 2674.26,3587.66 2674.21,3587.16C2674.26,3586.81 2674.31,3586.56 2674.31,3586.36C2674.31,3585.96 2674.21,3585.86 2674.06,3585.86C2673.86,3585.86 2673.66,3586.06 2673.66,3586.06C2670.41,3593.41 2662.81,3599.61 2657.71,3599.61ZM2657.71,3583.56C2657.71,3585.56 2655.91,3589.31 2652.66,3591.76C2652.86,3587.31 2654.56,3582.21 2656.76,3582.21C2657.41,3582.21 2657.71,3582.71 2657.71,3583.56Z" style="fill:rgb(255,242,0);fill-rule:nonzero;"/>
                </g>
                <g transform="matrix(13.8991,0,0,13.8991,-32069.3,-46403.1)">
                    <path d="M2596.06,3586.86C2595.96,3587.91 2595.86,3588.96 2595.86,3589.91C2595.86,3597.66 2599.71,3602.56 2606.56,3602.56C2609.01,3602.56 2611.61,3601.86 2613.96,3600.56C2617.76,3598.41 2620.61,3594.36 2620.61,3588.21C2620.61,3587.76 2620.26,3587.66 2620.21,3587.16C2620.26,3586.81 2620.31,3586.56 2620.31,3586.36C2620.31,3585.96 2620.21,3585.86 2620.06,3585.86C2619.86,3585.86 2619.66,3586.06 2619.66,3586.06C2617.66,3590.66 2613.91,3594.76 2610.16,3597.21C2608.01,3598.61 2605.61,3599.56 2603.61,3599.56C2600.41,3599.56 2599.41,3595.91 2599.41,3591.81C2599.41,3587.71 2600.41,3583.11 2601.31,3581.16C2601.36,3581.06 2601.36,3581.01 2601.36,3580.91C2601.36,3580.31 2599.61,3579.16 2599.06,3579.16C2598.91,3579.16 2598.81,3579.21 2598.66,3579.31C2595.76,3582.06 2593.41,3590.66 2591.81,3594.16C2592.16,3592.36 2592.21,3589.56 2592.21,3587.21L2592.21,3583.96C2592.21,3581.91 2591.61,3580.76 2589.46,3580.76C2587.66,3580.76 2585.71,3585.91 2584.06,3592.71L2584.06,3584.51C2584.06,3582.46 2584.01,3580.21 2583.61,3580.21C2583.21,3580.21 2582.56,3580.76 2581.66,3580.76C2581.01,3580.76 2580.31,3582.61 2579.51,3584.96C2578.06,3589.36 2576.36,3599.06 2572.71,3599.06C2572.21,3599.06 2571.81,3598.41 2571.81,3596.76C2571.81,3591.76 2572.51,3588.86 2573.81,3581.61C2573.81,3581.61 2573.81,3581.21 2573.21,3581.21C2571.86,3581.51 2571.01,3581.56 2570.16,3581.56C2569.26,3581.56 2568.16,3588.71 2568.16,3593.71C2568.16,3597.91 2569.01,3601.51 2571.81,3601.51C2578.01,3601.51 2579.81,3584.21 2580.71,3584.21C2580.76,3584.21 2580.81,3584.46 2580.81,3584.91C2580.81,3587.31 2580.46,3591.11 2580.31,3593.26C2580.01,3597.31 2579.66,3600.56 2579.66,3600.66C2579.66,3601.26 2580.81,3601.86 2581.81,3601.86C2582.51,3601.86 2583.16,3601.56 2583.31,3600.76C2584.66,3593.41 2587.16,3584.56 2588.41,3584.56C2588.71,3584.56 2588.86,3586.51 2588.86,3589.06C2588.86,3592.96 2588.56,3598.26 2588.36,3600.06C2588.36,3600.81 2589.91,3600.81 2590.91,3600.81C2591.31,3600.81 2591.76,3600.76 2591.81,3600.31C2592.91,3597.01 2594.61,3589.26 2596.06,3586.86ZM2574.16,3568.06C2572.16,3568.06 2570.86,3570.26 2570.86,3572.11C2570.86,3573.46 2571.56,3574.66 2573.16,3574.66C2574.91,3574.66 2576.36,3572.26 2576.36,3570.36C2576.36,3569.11 2575.71,3568.06 2574.16,3568.06Z" style="fill:rgb(255,242,0);fill-rule:nonzero;"/>
                </g>
                <g transform="matrix(25.9778,0,0,25.9778,-65439,-89173.5)">
                    <path d="M2606.71,3579.26C2606.71,3564.76 2593.36,3558.46 2580.81,3558.46C2569.66,3558.46 2559.16,3563.41 2559.16,3572.11C2559.16,3576.41 2563.06,3580.26 2570.76,3580.86C2570.11,3588.11 2569.71,3595.91 2569.71,3600.36C2569.71,3601.61 2571.26,3604.76 2572.81,3604.76C2573.51,3604.76 2573.41,3603.71 2573.56,3603.01C2573.61,3602.76 2573.76,3602.36 2573.96,3601.96C2575.06,3603.21 2577.26,3604.11 2580.76,3604.11C2597.56,3604.11 2606.71,3591.31 2606.71,3579.26ZM2572.51,3567.31C2572.01,3569.81 2571.51,3573.36 2571.11,3577.31C2565.46,3576.21 2562.51,3573.26 2562.51,3570.21C2562.51,3564.31 2569.91,3561.21 2578.31,3561.21C2589.21,3561.21 2601.71,3566.46 2601.71,3577.86C2601.71,3588.06 2593.86,3599.01 2579.61,3599.01C2577.16,3599.01 2576.06,3598.46 2576.06,3597.46C2576.06,3596.31 2577.11,3595.31 2577.46,3594.86C2577.46,3594.61 2576.81,3594.51 2576.81,3594.51C2575.71,3595.11 2574.86,3595.81 2574.21,3596.61C2574.21,3591.86 2574.26,3586.46 2574.46,3580.91C2581.41,3580.36 2584.26,3575.91 2584.11,3575.76C2581.61,3577.21 2578.96,3577.76 2576.36,3577.76C2575.76,3577.76 2575.16,3577.76 2574.61,3577.71C2574.76,3573.81 2575.01,3569.96 2575.36,3566.36C2575.36,3566.16 2575.31,3566.11 2575.26,3566.11C2574.66,3566.11 2573.96,3566.31 2573.26,3566.46C2572.86,3566.56 2572.66,3566.71 2572.51,3567.31Z" style="fill:rgb(255,242,0);fill-rule:nonzero;"/>
                    <path d="M2611.26,3579.06C2610.96,3582.66 2607.21,3595.96 2603.81,3600.86C2603.76,3600.91 2603.76,3600.96 2603.76,3601.01C2603.76,3601.41 2604.86,3601.61 2604.86,3601.61C2608.01,3597.61 2610.26,3588.71 2611.46,3586.41C2611.46,3587.61 2613.36,3593.26 2613.36,3596.61C2613.36,3598.11 2613.01,3599.16 2611.91,3599.16C2610.71,3599.16 2610.71,3597.26 2609.96,3595.51C2609.91,3595.41 2609.86,3595.41 2609.81,3595.41C2609.51,3595.41 2609.06,3596.66 2609.06,3598.11C2609.06,3600.86 2610.86,3602.16 2612.71,3602.16C2614.76,3602.16 2616.91,3600.61 2616.91,3597.61C2616.91,3593.51 2613.96,3588.01 2613.96,3584.41C2613.96,3580.56 2614.71,3577.31 2614.71,3577.26C2614.71,3577.06 2614.46,3577.01 2614.31,3577.01C2613.56,3577.01 2611.36,3577.96 2611.26,3579.06Z" style="fill:rgb(255,242,0);fill-rule:nonzero;"/>
                    <path d="M2618.51,3592.76C2618.51,3598.86 2622.56,3601.96 2626.21,3601.96C2629.26,3601.96 2632.01,3599.81 2632.01,3595.51C2632.01,3593.11 2630.91,3590.91 2629.46,3590.91C2628.86,3590.91 2628.86,3591.16 2628.86,3591.21C2629.26,3592.46 2629.46,3593.61 2629.46,3594.66C2629.46,3597.96 2627.76,3599.61 2625.96,3599.61C2624.01,3599.61 2621.91,3597.61 2621.91,3593.81C2621.91,3589.11 2624.81,3583.16 2627.51,3582.96C2627.76,3583.06 2627.86,3583.36 2627.86,3583.76C2627.86,3584.91 2626.96,3586.81 2626.56,3586.86C2626.46,3586.86 2626.41,3586.91 2626.41,3587.01C2626.41,3587.26 2626.81,3587.66 2627.86,3587.66C2629.56,3587.66 2630.86,3586.46 2630.86,3584.86C2630.86,3584.61 2630.81,3584.31 2630.76,3584.06C2630.51,3580.66 2629.01,3579.11 2627.01,3579.11C2622.21,3579.11 2618.51,3586.46 2618.51,3592.76Z" style="fill:rgb(255,242,0);fill-rule:nonzero;"/>
                    <path d="M2637.31,3590.16C2637.31,3588.76 2637.51,3585.91 2637.76,3582.91C2642.61,3578.31 2646.01,3568.41 2646.01,3561.86C2646.01,3558.21 2644.91,3555.61 2642.46,3555.61C2639.61,3555.61 2635.71,3569.31 2634.86,3581.66L2634.71,3583.46C2633.96,3583.71 2632.81,3583.96 2632.86,3583.96C2632.86,3584.01 2633.01,3584.11 2633.36,3584.11C2633.81,3584.31 2633.56,3584.61 2634.01,3584.81C2634.06,3584.86 2634.21,3584.91 2634.41,3584.91L2634.61,3584.91C2634.06,3592.31 2633.41,3599.16 2633.31,3600.96C2633.76,3601.41 2635.56,3602.31 2636.41,3602.96C2636.56,3603.06 2636.66,3603.11 2636.76,3603.11C2637.01,3603.11 2637.11,3602.76 2637.11,3602.26C2637.11,3602.26 2637.06,3600.76 2637.06,3598.91C2637.06,3596.36 2637.66,3593.06 2638.76,3590.56C2639.21,3589.46 2641.56,3584.96 2641.86,3584.96C2642.01,3584.96 2642.06,3585.61 2642.06,3585.81C2641.96,3587.21 2641.81,3589.46 2641.81,3591.81C2641.81,3594.76 2642.06,3601.71 2646.46,3601.71C2647.16,3601.71 2648.01,3601.51 2648.91,3600.86C2650.31,3599.86 2651.66,3597.76 2651.66,3595.91C2651.66,3595.66 2651.56,3595.16 2651.16,3595.16C2650.96,3595.16 2650.91,3595.36 2650.91,3595.36C2650.51,3596.71 2649.06,3599.11 2647.41,3599.11C2646.01,3599.11 2645.76,3596.21 2645.76,3593.71C2645.76,3590.31 2646.06,3586.81 2646.61,3582.86C2646.61,3581.81 2645.66,3581.61 2644.66,3581.56C2644.66,3581.56 2644.26,3581.11 2643.76,3581.11C2642.06,3581.11 2638.31,3588.46 2637.66,3590.21C2637.61,3590.31 2637.56,3590.36 2637.46,3590.36C2637.41,3590.36 2637.31,3590.31 2637.31,3590.16ZM2643.56,3563.96C2643.56,3567.86 2641.61,3576.31 2637.91,3580.86C2638.76,3571.56 2641.21,3561.91 2642.91,3561.91C2643.31,3561.91 2643.56,3562.71 2643.56,3563.96Z" style="fill:rgb(255,242,0);fill-rule:nonzero;"/>
                    <path d="M2656.86,3581.06C2656.86,3581.06 2656.86,3580.66 2656.26,3580.66C2654.91,3580.96 2654.06,3581.01 2653.21,3581.01C2652.81,3581.01 2652.61,3581.66 2652.61,3581.66C2651.96,3583.81 2651.01,3589.11 2651.01,3593.76C2651.01,3598.21 2651.86,3602.11 2654.61,3602.11C2657.51,3602.11 2659.71,3596.51 2661.16,3592.56C2661.31,3598.36 2662.81,3601.46 2664.71,3601.46C2666.11,3601.46 2667.76,3599.76 2669.26,3596.11C2671.41,3591.06 2672.31,3584.21 2672.86,3584.21C2672.91,3584.21 2672.96,3584.46 2672.96,3584.91C2672.96,3587.31 2672.61,3591.11 2672.46,3593.26C2672.16,3597.31 2671.81,3600.56 2671.81,3600.66C2671.81,3600.81 2673.11,3602.01 2674.16,3602.01C2674.56,3602.01 2674.86,3601.86 2674.91,3601.51C2676.01,3598.21 2677.21,3591.36 2679.61,3588.76C2679.61,3591.26 2679.91,3599.81 2684.26,3599.81C2686.26,3599.81 2687.61,3596.76 2687.61,3594.71C2687.61,3594.61 2687.56,3594.56 2687.46,3594.56C2687.36,3594.56 2687.26,3594.61 2687.26,3594.61C2686.46,3596.81 2685.71,3597.66 2685.11,3597.66C2684.06,3597.66 2683.41,3595.06 2683.41,3592.41C2683.41,3589.41 2683.91,3584.96 2685.16,3582.16C2685.21,3582.06 2685.21,3582.01 2685.21,3581.91C2685.21,3581.31 2683.46,3580.16 2682.91,3580.16C2682.76,3580.16 2682.66,3580.21 2682.51,3580.31C2679.61,3583.06 2677.76,3588.91 2676.16,3592.41C2676.16,3591.11 2676.21,3588.91 2676.21,3584.51C2676.21,3582.46 2676.16,3580.21 2675.76,3580.21C2675.36,3580.21 2674.71,3580.76 2673.81,3580.76C2673.16,3580.76 2672.46,3582.61 2671.66,3584.96C2670.81,3587.56 2669.76,3592.06 2668.31,3595.26C2667.26,3597.56 2666.31,3598.91 2665.56,3598.91C2664.86,3598.91 2664.36,3597.61 2664.36,3594.56C2664.36,3590.61 2665.26,3585.31 2665.26,3583.81C2665.26,3582.91 2662.61,3582.51 2662.16,3582.26C2661.56,3585.21 2661.26,3587.81 2661.16,3590.06C2659.91,3593.96 2657.06,3599.21 2655.56,3599.21C2654.96,3599.21 2654.61,3598.41 2654.61,3596.46C2654.61,3587.36 2656.86,3581.61 2656.86,3581.06Z" style="fill:rgb(255,242,0);fill-rule:nonzero;"/>
                    <path d="M2692.61,3601.51C2694.66,3601.51 2696.66,3598.71 2698.01,3595.11C2698.06,3595.16 2698.06,3595.21 2698.06,3595.31C2697.66,3600.26 2698.11,3616.09 2687.36,3616.09C2684.81,3616.09 2683.16,3612.84 2683.16,3610.99C2683.01,3610.69 2682.71,3610.49 2682.51,3610.49C2682.21,3610.49 2682.01,3610.74 2682.01,3611.29C2682.01,3614.84 2685.26,3618.69 2689.06,3618.69C2703.31,3618.69 2699.51,3601.46 2703.46,3587.31C2703.51,3587.16 2703.51,3587.01 2703.51,3586.91C2703.51,3585.36 2700.71,3585.01 2698.81,3584.86C2698.36,3588.81 2696.16,3599.06 2692.06,3599.06C2691.06,3599.06 2690.56,3597.21 2690.56,3595.16C2690.56,3590.86 2693.81,3583.41 2698.51,3583.41C2699.21,3583.41 2699.86,3583.56 2700.61,3583.91L2700.61,3583.81C2700.61,3581.06 2698.76,3579.51 2696.46,3579.51C2692.66,3579.51 2687.66,3583.71 2687.66,3593.56C2687.66,3597.86 2689.16,3601.51 2692.61,3601.51Z" style="fill:rgb(255,242,0);fill-rule:nonzero;"/>
                    <path d="M2728.26,3599.41C2725.31,3599.41 2723.71,3596.91 2722.91,3593.16C2727.56,3584.01 2729.81,3570.31 2729.81,3564.56C2729.81,3560.01 2728.86,3556.96 2726.56,3556.96C2723.01,3556.96 2719.91,3571.61 2719.91,3585.31C2719.91,3588.26 2720.01,3591.76 2720.86,3594.86C2719.11,3597.66 2716.06,3600.21 2713.56,3600.21C2711.46,3600.21 2709.71,3598.46 2709.31,3593.66C2714.56,3591.66 2716.81,3587.21 2716.81,3583.81C2716.81,3581.26 2715.56,3579.31 2713.36,3579.31C2708.71,3579.31 2705.66,3585.61 2705.36,3591.66L2704.61,3591.51C2704.36,3591.51 2704.01,3591.76 2704.01,3591.96C2704.01,3592.01 2704.06,3592.06 2704.11,3592.11C2704.66,3592.71 2704.46,3593.21 2704.76,3593.26C2704.96,3593.31 2705.16,3593.31 2705.36,3593.31C2706.76,3599.26 2709.66,3601.66 2712.76,3601.66C2715.81,3601.66 2719.06,3599.41 2721.26,3596.06C2722.61,3599.71 2725.26,3602.56 2730.61,3602.56C2738.36,3602.56 2744.66,3596.46 2744.66,3588.21C2744.66,3587.76 2744.31,3587.66 2744.26,3587.16C2744.31,3586.81 2744.36,3586.56 2744.36,3586.36C2744.36,3585.96 2744.26,3585.86 2744.11,3585.86C2743.91,3585.86 2743.71,3586.06 2743.71,3586.06C2741.46,3591.06 2734.56,3599.41 2728.26,3599.41ZM2727.51,3566.11C2727.51,3571.11 2726.26,3583.16 2722.61,3591.51C2722.36,3589.81 2722.26,3587.96 2722.26,3585.96C2722.26,3575.21 2725.36,3561.91 2726.36,3561.91C2727.16,3561.91 2727.51,3563.51 2727.51,3566.11ZM2713.21,3582.21C2713.96,3582.21 2714.36,3583.11 2714.36,3584.31C2714.36,3586.66 2712.86,3590.26 2709.26,3591.56C2709.36,3587.11 2710.96,3582.21 2713.21,3582.21Z" style="fill:rgb(255,242,0);fill-rule:nonzero;"/>
                </g>
            </g>
        </g>
    </g>
</svg>
