<?xml version="1.0" encoding="UTF-8" standalone="no"?><!DOCTYPE svg PUBLIC "-//W3C//DTD SVG 1.1//EN" "http://www.w3.org/Graphics/SVG/1.1/DTD/svg11.dtd"><svg width="100%" height="100%" viewBox="0 0 112 49" version="1.1" xmlns="http://www.w3.org/2000/svg" xmlns:xlink="http://www.w3.org/1999/xlink" xml:space="preserve" xmlns:serif="http://www.serif.com/" style="fill-rule:evenodd;clip-rule:evenodd;stroke-linejoin:round;stroke-miterlimit:2;"><rect id="logo_kult" x="0" y="0" width="111.053" height="48.204" style="fill:none;"/><g><path d="M3.359,6.426l0,35.352l35.352,0l0,-35.352l-35.352,0Zm27.504,28.053l-7.27,0l-5.922,-6.904l-0,6.904l-5.86,0l-0,-20.754l5.868,0l-0,6.817l5.453,-6.817l7.02,0l-0,0.354l-8.418,9.815l9.129,10.223l0,0.362Z" style="fill:#fff;fill-rule:nonzero;"/><g><path d="M53.064,6.526l-5.182,5.814l5.59,6.143l-0,0.133l-2.704,0l-4.87,-5.39l0,5.39l-2.196,0l0,-12.19l2.2,0l0,5.157l4.43,-5.157l2.732,0l0,0.1Z" style="fill:#fff;fill-rule:nonzero;"/><path d="M64.277,6.46l-0,6.999c-0,3.614 -2.104,5.453 -5.028,5.453c-2.795,-0 -5.182,-1.776 -5.182,-5.453l-0,-6.966l2.166,-0l0,6.966c0,2.2 1.194,3.352 3.016,3.352c1.821,0 2.857,-1.281 2.857,-3.352l-0,-6.966l2.167,-0l-0,-0.033l0.004,-0Z" style="fill:#fff;fill-rule:nonzero;"/><path d="M68.644,6.426l0,10.086l6.002,-0l-0,2.104l-8.169,0l0,-12.19l2.167,0Z" style="fill:#fff;fill-rule:nonzero;"/><path d="M77.44,8.531l-3.676,-0l-0,-2.071l9.582,-0l0,2.071l-3.676,-0l-0,10.085l-2.196,0l-0.034,-10.085Z" style="fill:#fff;fill-rule:nonzero;"/><path d="M95.22,6.46l0,6.999c0,3.614 -2.104,5.453 -5.028,5.453c-2.795,-0 -5.182,-1.776 -5.182,-5.453l-0,-6.966l2.167,-0l-0,6.966c-0,2.2 1.193,3.352 3.015,3.352c1.822,0 2.857,-1.281 2.857,-3.352l0,-6.966l2.167,-0l0,-0.033l0.004,-0Z" style="fill:#fff;fill-rule:nonzero;"/><path d="M107.693,18.65l-2.607,-0l-3.394,-4.076l-2.105,-0l0,4.076l-2.2,-0l0,-12.19c1.855,-0 3.677,0.033 5.528,0.033c2.732,0.033 4.179,1.938 4.179,4.042c0,1.676 -0.723,3.353 -2.952,3.81l3.518,4.172l0.033,0.133Zm-8.106,-10.057l0,3.91l3.332,-0c1.381,-0 1.979,-0.986 1.979,-1.938c0,-0.986 -0.628,-1.939 -1.979,-1.939l-3.332,-0.033Z" style="fill:#fff;fill-rule:nonzero;"/></g><g><path d="M48.918,22.459c-0.283,-0.461 -1.007,-0.885 -1.822,-0.885c-1.069,-0 -1.601,0.461 -1.601,1.085c-0,0.724 0.786,0.886 1.726,1.019c1.601,0.195 3.111,0.657 3.111,2.595c-0,1.805 -1.51,2.595 -3.236,2.595c-1.572,0 -2.795,-0.49 -3.361,-2.004l1.227,-0.657c0.346,0.886 1.227,1.281 2.167,1.281c0.911,-0 1.793,-0.329 1.793,-1.215c-0,-0.757 -0.753,-1.085 -1.793,-1.181c-1.572,-0.195 -3.015,-0.624 -3.015,-2.462c-0,-1.676 1.572,-2.333 2.986,-2.367c1.194,0 2.45,0.362 3.015,1.61l-1.197,0.586Z" style="fill:#fff;fill-rule:nonzero;"/><path d="M55.106,26.207l-2.2,-0l0,2.366l-1.443,0l-0,-8.085l3.643,-0c3.768,-0 3.768,5.719 0,5.719Zm-2.2,-1.414l2.2,-0c1.884,-0 1.855,-2.858 0,-2.858l-2.2,0l0,2.858Z" style="fill:#fff;fill-rule:nonzero;"/><path d="M64.689,28.569l-5.781,0l-0,-8.081l5.781,-0l-0,1.476l-4.334,0l0,1.872l4.18,0l-0,1.414l-4.18,0l0,1.838l4.334,0l-0,1.481Z" style="fill:#fff;fill-rule:nonzero;"/><path d="M72.005,20.555l-3.423,3.876l3.705,4.076l0,0.099l-1.792,0l-3.236,-3.58l0,3.547l-1.443,0l-0,-8.085l1.443,-0l0,3.419l2.953,-3.419l1.822,-0l-0,0.067l-0.029,-0Z" style="fill:#fff;fill-rule:nonzero;"/><path d="M75.024,21.869l-2.45,-0l0,-1.381l6.347,-0l0,1.381l-2.45,-0l0,6.704l-1.443,0l-0.004,-6.704Z" style="fill:#fff;fill-rule:nonzero;"/><path d="M85.297,27.059l-4.051,0l-0.661,1.51l-1.572,0l3.456,-8.081l1.601,-0l3.456,8.081l-1.601,0l-0.628,-1.51Zm-2.013,-4.862l-1.443,3.448l2.857,0l-1.414,-3.448Z" style="fill:#fff;fill-rule:nonzero;"/><path d="M94.31,20.555l-3.423,3.876l3.705,4.076l0,0.099l-1.792,0l-3.236,-3.58l0,3.547l-1.443,0l-0,-8.085l1.443,-0l0,3.419l2.953,-3.419l1.822,-0l-0.029,0.067Z" style="fill:#fff;fill-rule:nonzero;"/><path d="M101.097,28.569l-5.781,0l0,-8.081l5.781,-0l0,1.476l-4.334,0l0,1.872l4.18,0l0,1.414l-4.18,0l0,1.838l4.334,0l0,1.481Z" style="fill:#fff;fill-rule:nonzero;"/><path d="M103.672,20.488l-0,6.671l3.988,0l0,1.414l-5.436,0l0,-8.085l1.448,-0Z" style="fill:#fff;fill-rule:nonzero;"/></g><g><path d="M52.657,32.578c-0.911,-0.952 -2.201,-1.447 -3.423,-1.447c-3.111,0 -4.679,2.367 -4.679,4.928c-0,2.629 1.601,4.862 4.679,4.862c1.131,0 2.325,-0.395 3.235,-1.281l0,-3.119l-3.705,0l-0,-0.724l4.462,0l0,4.172c-1.098,1.148 -2.42,1.805 -4.021,1.805c-3.615,0 -5.465,-2.628 -5.465,-5.652c-0,-3.481 2.229,-5.748 5.465,-5.748c1.38,0 2.794,0.557 3.897,1.676l-0.445,0.528Z" style="fill:#fff;fill-rule:nonzero;"/><path d="M63.903,41.616l-1.161,-2.728l-6.346,-0l-1.161,2.728l-0.877,-0l4.745,-11.105l0.878,0l4.745,11.105l-0.823,-0Zm-1.51,-3.519l-2.857,-6.766l-2.858,6.766l5.715,0Z" style="fill:#fff;fill-rule:nonzero;"/><path d="M73.452,30.507l-0,6.9c-0,5.814 -8.135,5.814 -8.135,0l-0,-6.9l0.815,0l-0,6.9c-0,4.762 6.534,4.762 6.534,0l-0,-6.9l0.786,0Z" style="fill:#fff;fill-rule:nonzero;"/><path d="M78.701,31.297l-3.835,0l-0,-0.757l8.48,0l0,0.757l-3.83,0l-0,10.315l-0.815,-0l-0,-10.315Z" style="fill:#fff;fill-rule:nonzero;"/><path d="M84.918,41.616l0,-11.109l0.816,0l-0,11.105l-0.816,-0l0,0.004Z" style="fill:#fff;fill-rule:nonzero;"/><path d="M88.437,30.507l7.129,9.167l-0,-9.167l0.815,0l-0,11.105l-0.316,-0l-7.162,-9.167l-0,9.167l-0.815,-0l-0,-11.105l0.349,0Z" style="fill:#fff;fill-rule:nonzero;"/><path d="M107.094,32.578c-0.91,-0.952 -2.2,-1.447 -3.422,-1.447c-3.111,0 -4.679,2.367 -4.679,4.928c-0,2.629 1.601,4.862 4.679,4.862c1.131,0 2.324,-0.395 3.235,-1.281l0,-3.119l-3.705,0l-0,-0.724l4.462,0l0,4.172c-1.098,1.148 -2.42,1.805 -4.022,1.805c-3.614,0 -5.465,-2.628 -5.465,-5.652c0,-3.481 2.23,-5.748 5.465,-5.748c1.381,0 2.795,0.557 3.897,1.676l-0.445,0.528Z" style="fill:#fff;fill-rule:nonzero;"/></g></g></svg>