<?xml version="1.0" encoding="UTF-8" standalone="no"?><!DOCTYPE svg PUBLIC "-//W3C//DTD SVG 1.1//EN" "http://www.w3.org/Graphics/SVG/1.1/DTD/svg11.dtd"><svg width="100%" height="100%" viewBox="0 0 61 49" version="1.1" xmlns="http://www.w3.org/2000/svg" xmlns:xlink="http://www.w3.org/1999/xlink" xml:space="preserve" xmlns:serif="http://www.serif.com/" style="fill-rule:evenodd;clip-rule:evenodd;stroke-linejoin:round;stroke-miterlimit:2;"><rect id="logo_kjr" x="0" y="0" width="60.642" height="48.204" style="fill:none;"/><path d="M54.011,24.103c-0,13.084 -10.605,23.689 -23.689,23.688c-13.084,0.001 -23.691,-10.605 -23.69,-23.688c-0.001,-13.084 10.606,-23.688 23.689,-23.689c13.084,-0 23.691,10.605 23.69,23.689m-37.402,-17.448c-0.176,-0.263 -4.438,1.846 -7.383,9.537c-2.946,7.693 -0.397,15.031 -0.397,15.031c-0.793,-14.855 7.956,-24.302 7.78,-24.568m-3.517,25.842c1.803,3.869 4.528,4.879 5.537,4.044c1.012,-0.834 1.056,-1.8 -1.713,-7.032c-2.771,-5.23 -2.549,-6.152 -2.549,-7.428c-0.001,-1.275 2.635,-3.558 5.977,-7.558c3.341,-4.001 14.945,-10.988 14.9,-11.384c-0.044,-0.395 -3.031,-1.099 -5.581,-0.66c-2.549,0.441 -6.548,3.166 -9.759,5.803c-3.207,2.636 -6.942,7.778 -8.614,10.549c-1.671,2.766 -1.318,3.515 -1.318,3.515c-0.306,3.559 1.32,6.284 3.12,10.151m15.34,-13.58c-0,-0 2.855,-0.394 1.672,2.418c-2.62,6.201 -5.014,11.516 -5.671,12.527c-0.66,1.011 -3.121,5.142 -6.242,5.141c-3.057,0.001 -5.229,-3.032 -5.362,-3.164c-0.131,-0.132 -1.891,-2.726 -2.021,-1.846c-0.133,0.88 -0.045,0.482 0.878,2.33c0.923,1.845 4.527,4.527 4.527,4.527c-0,-0 8.393,5.096 12.527,-0.837c4.129,-5.934 10.063,-21.007 11.428,-24.611c1.36,-3.605 0.041,-3.208 -1.891,-3.341c-1.934,-0.134 -1.495,-0.482 -8.704,-0.264c-7.206,0.221 -7.03,3.867 -7.03,3.867c-0.264,4.308 5.889,3.253 5.889,3.253m5.891,-10.019c1.889,0.35 9.667,0.922 11.866,2.944c2.198,2.02 2.372,4.702 -0.704,7.471c-2.518,2.267 -2.9,2.417 -5.715,5.537c-2.668,2.962 0.31,4.131 0.31,4.131l9.757,6.021c0,0 1.582,-3.205 1.844,-4.086c0.264,-0.879 0.264,-1.361 -0.042,-1.933c-0.309,-0.573 -1.626,-2.11 -2.066,-2.637c-0.44,-0.529 -0.835,-0.967 -0.748,-1.757c0.089,-0.793 2.021,-3.254 2.287,-4.484c0.264,-1.23 0.264,-2.946 -0.529,-5.142c-0.791,-2.198 -2.196,-3.518 -2.855,-4.22c-0.663,-0.703 -2.726,-2.988 -8.616,-4.438c-5.889,-1.453 -6.592,-0.044 -6.592,-0.044c-2.813,1.975 -0.086,2.283 1.803,2.637" style="fill:#fff;fill-rule:nonzero;"/></svg>